HIERARCHY
ROOT Hips
{
  OFFSET 50.3411 100.635 9.13997
  CHANNELS 6 Xposition Yposition Zposition Zrotation Xrotation Yrotation
  JOINT spine
  {
    OFFSET 0 8.81704 0.507024
    CHANNELS 3 Zrotation Xrotation Yrotation
    JOINT spine1
    {
      OFFSET 0 10.7766 0
      CHANNELS 3 Zrotation Xrotation Yrotation
      JOINT spine2
      {
        OFFSET 0 10.3259 0
        CHANNELS 3 Zrotation Xrotation Yrotation
        JOINT Neck
        {
          OFFSET 0 26.511 1.26395
          CHANNELS 3 Zrotation Xrotation Yrotation
          JOINT Head
          {
            OFFSET 0 8.00966 0
            CHANNELS 3 Zrotation Xrotation Yrotation
            End Site
            {
              OFFSET 0 19.3879 -6.39386
            }
          }
        }
        JOINT RightShoulder
        {
          OFFSET -4.34795 11.1512 -0.605422
          CHANNELS 3 Zrotation Xrotation Yrotation
          JOINT RightArm
          {
            OFFSET 0 14.6258 0
            CHANNELS 3 Zrotation Xrotation Yrotation
            JOINT RightArmRoll
            {
              OFFSET 0 7.3834 0
              CHANNELS 3 Zrotation Xrotation Yrotation
              JOINT RightForeArm
              {
                OFFSET 0 21.5052 0
                CHANNELS 3 Zrotation Xrotation Yrotation
                JOINT RightForeArmRoll
                {
                  OFFSET 0 8.28532 0
                  CHANNELS 3 Zrotation Xrotation Yrotation
                  JOINT RightHand
                  {
                    OFFSET 0 16.6268 0
                    CHANNELS 3 Zrotation Xrotation Yrotation
                    End Site
                    {
                      OFFSET 0 0 0
                    }
                  }
                }
              }
            }
          }
        }
        JOINT LeftShoulder
        {
          OFFSET 4.34795 11.1512 -0.605422
          CHANNELS 3 Zrotation Xrotation Yrotation
          JOINT LeftArm
          {
            OFFSET 0 14.6258 0
            CHANNELS 3 Zrotation Xrotation Yrotation
            JOINT LeftArmRoll
            {
              OFFSET 0 7.3834 0
              CHANNELS 3 Zrotation Xrotation Yrotation
              JOINT LeftForeArm
              {
                OFFSET 0 21.5052 0
                CHANNELS 3 Zrotation Xrotation Yrotation
                JOINT LeftForeArmRoll
                {
                  OFFSET 0 8.28532 0
                  CHANNELS 3 Zrotation Xrotation Yrotation
                  JOINT LeftHand
                  {
                    OFFSET 0 16.6268 0
                    CHANNELS 3 Zrotation Xrotation Yrotation
                    End Site
                    {
                      OFFSET 0 0 0
                    }
                  }
                }
              }
            }
          }
        }
      }
    }
  }
  JOINT RightUpLeg
  {
    OFFSET -7.8151 -1.43309 -1.20217
    CHANNELS 3 Zrotation Xrotation Yrotation
    JOINT RightUpLegRoll
    {
      OFFSET 0 19.4959 0
      CHANNELS 3 Zrotation Xrotation Yrotation
      JOINT RightLeg
      {
        OFFSET 0 -24.1427 0
        CHANNELS 3 Zrotation Xrotation Yrotation
        JOINT RightLegRoll
        {
          OFFSET 0 24.2217 0
          CHANNELS 3 Zrotation Xrotation Yrotation
          JOINT RightFoot
          {
            OFFSET 0 20.1605 0
            CHANNELS 3 Zrotation Xrotation Yrotation
            JOINT RightToeBase
            {
              OFFSET 0 16.8532 0
              CHANNELS 3 Zrotation Xrotation Yrotation
              End Site
              {
                OFFSET 0.00714342 8.16186 -0.940781
              }
            }
          }
        }
      }
    }
  }
  JOINT LeftUpLeg
  {
    OFFSET 7.8151 -1.43309 -1.20217
    CHANNELS 3 Zrotation Xrotation Yrotation
    JOINT LeftUpLegRoll
    {
      OFFSET 0 19.496 0
      CHANNELS 3 Zrotation Xrotation Yrotation
      JOINT LeftLeg
      {
        OFFSET 0 24.1426 0
        CHANNELS 3 Zrotation Xrotation Yrotation
        JOINT LeftLegRoll
        {
          OFFSET 0 24.4456 0
          CHANNELS 3 Zrotation Xrotation Yrotation
          JOINT LeftFoot
          {
            OFFSET 0 19.9366 0
            CHANNELS 3 Zrotation Xrotation Yrotation
            JOINT LeftToeBase
            {
              OFFSET 0 16.8532 0
              CHANNELS 3 Zrotation Xrotation Yrotation
              End Site
              {
                OFFSET -0.0320138 8.16187 -0.94078
              }
            }
          }
        }
      }
    }
  }
}
MOTION
Frames: 10
Frame Time: 0.00208333
52.0113 100.612 9.05316 -0.526468 -2.31675 1.61987 0.262237 -2.13891 -0.112144 0.531598 -0.27563 -0.248536 0.534708 1.3694 -0.257526 -2.54807 25.2303 3.12569 -6.60039 -6.74623 1.13366 65.4136 -0.746385 -1.24654 108.049 9.42071 11.1472 -9.54166e-015 4.77083e-015 -3.18055e-015 15.9602 6.87468 -1.14625 -7.09662e-006 5.19571e-006 -3 8.02898 -4.95144 0.697692 -63.9461 -3.82878 2.78946 -107.955 18.6089 -0.251935 9.54166e-015 9.54166e-015 3.97569e-015 -14.681 5.50365 0.964949 4.61978e-006 1.88776e-006 3.00001 -8.02893 -4.95144 -0.697707 178.969 -0.694104 -0.266071 180 7.01553e-015 178.948 177.61 5.38921 179.778 -3.63578e-006 -3.53707e-006 0.036288 -18.1754 67.3838 19.0512 8.13354 25.2328 -3.48648 -176.852 0.190823 1.99652 4.54188e-006 -4.6773e-006 -1.09253 -2.33083 -8.59224 0.16222 5.39004e-007 -2.5754e-006 -0.153289 19.7151 69.2918 -20.6628 -8.13937 25.2325 3.48896 
51.9967 100.605 9.03828 -0.528985 -2.31303 1.60209 0.26374 -2.13855 -0.110946 0.533849 -0.274913 -0.246293 0.536933 1.37011 -0.255317 -2.53559 25.1997 3.11799 -6.59137 -6.68853 1.13583 65.4278 -0.762719 -1.25675 108.037 9.4046 11.1036 1.70955e-014 -3.18055e-015 3.18055e-015 15.9795 7.01916 -1.17032 -7.09662e-006 5.19571e-006 -3 8.02898 -4.95144 0.697692 -63.9351 -3.81423 2.78052 -107.975 18.6646 -0.197943 4.37326e-015 9.54166e-015 -0 -14.7021 5.51255 0.96569 4.61978e-006 1.88776e-006 3.00001 -8.02893 -4.95144 -0.697707 178.97 -0.677874 -0.267249 180 7.01553e-015 178.948 177.61 5.39889 179.779 -3.63578e-006 -3.53707e-006 0.036288 -18.1727 67.3803 19.0482 8.13354 25.2328 -3.48648 -176.848 0.20126 1.99111 4.54188e-006 -4.6773e-006 -1.09253 -2.3357 -8.60306 0.161201 5.39004e-007 -2.5754e-006 -0.153289 19.7166 69.2934 -20.6644 -8.13937 25.2325 3.48896 
52.0055 100.61 9.0592 -0.531431 -2.30951 1.5844 0.265246 -2.13815 -0.10962 0.53608 -0.274099 -0.243799 0.539136 1.37093 -0.252857 -2.52496 25.1672 3.11083 -6.57935 -6.62814 1.13861 65.4415 -0.77961 -1.26721 108.026 9.38941 11.0617 -9.93923e-015 0 -4.77083e-015 15.9977 7.16105 -1.19394 -7.09662e-006 5.19571e-006 -3 8.02898 -4.95144 0.697692 -63.924 -3.79972 2.7716 -107.995 18.7216 -0.144618 -3.57812e-015 6.36111e-015 -3.18055e-015 -14.7224 5.51908 0.966085 4.61978e-006 1.88776e-006 3.00001 -8.02893 -4.95144 -0.697707 178.971 -0.661892 -0.268391 180 7.01553e-015 178.948 177.61 5.40861 179.779 -3.63578e-006 -3.53707e-006 0.036288 -18.1699 67.3768 19.0452 8.13354 25.2328 -3.48648 -176.845 0.21156 1.9857 4.54188e-006 -4.6773e-006 -1.09253 -2.34054 -8.61405 0.160163 5.39004e-007 -2.5754e-006 -0.153289 19.7182 69.295 -20.6661 -8.13937 25.2325 3.48896 
52.0169 100.613 9.05596 -0.533828 -2.30613 1.56677 0.266754 -2.13771 -0.108204 0.538298 -0.273216 -0.241129 0.541322 1.37181 -0.250221 -2.51564 25.1333 3.10406 -6.56524 -6.56586 1.1418 65.4549 -0.796892 -1.27784 108.016 9.37487 11.0209 -6.36111e-015 6.36111e-015 -1.59028e-015 16.0153 7.30112 -1.21725 -7.09662e-006 5.19571e-006 -3 8.02898 -4.95144 0.697692 -63.9129 -3.78522 2.7627 -108.015 18.7794 -0.091748 1.98785e-015 6.36111e-015 1.59028e-015 -14.7421 5.52395 0.966237 4.61978e-006 1.88776e-006 3.00001 -8.02893 -4.95144 -0.697707 178.972 -0.646083 -0.269508 180 7.01553e-015 178.948 177.609 5.41837 179.78 -3.63578e-006 -3.53707e-006 0.036288 -18.1672 67.3733 19.0422 8.13354 25.2328 -3.48648 -176.842 0.221764 1.98027 4.54188e-006 -4.6773e-006 -1.09253 -2.34538 -8.62517 0.159111 5.39004e-007 -2.5754e-006 -0.153289 19.7197 69.2967 -20.6677 -8.13937 25.2325 3.48896 
52.0129 100.611 9.03269 -0.536195 -2.30284 1.54918 0.268263 -2.13725 -0.106736 0.540507 -0.272295 -0.238359 0.5435 1.37273 -0.247484 -2.50705 25.0987 3.09751 -6.54994 -6.50251 1.14523 65.4681 -0.814397 -1.28856 108.006 9.36069 10.9809 1.59028e-015 1.59028e-015 -0 16.0325 7.44015 -1.24039 -7.09662e-006 5.19571e-006 -3 8.02898 -4.95144 0.697692 -63.9019 -3.77074 2.75381 -108.036 18.8376 -0.0391225 -2.18663e-014 0 -8.74653e-015 -14.7616 5.52787 0.966251 4.61978e-006 1.88776e-006 3.00001 -8.02893 -4.95144 -0.697707 178.973 -0.630373 -0.270612 180 7.01553e-015 178.948 177.609 5.42815 179.78 -3.63578e-006 -3.53707e-006 0.036288 -18.1644 67.3697 19.0393 8.13354 25.2328 -3.48648 -176.838 0.231914 1.97484 4.54188e-006 -4.6773e-006 -1.09254 -2.3502 -8.63636 0.158052 5.39004e-007 -2.5754e-006 -0.153289 19.7213 69.2983 -20.6694 -8.13937 25.2325 3.48896 
52.0089 100.608 9.03784 -0.538554 -2.29957 1.5316 0.269772 -2.13678 -0.105255 0.542715 -0.271364 -0.235563 0.545675 1.37366 -0.244722 -2.49866 25.0638 3.09102 -6.53434 -6.4389 1.14872 65.4812 -0.831957 -1.29932 107.996 9.34659 10.9411 4.37326e-015 0 1.59028e-015 16.0497 7.57891 -1.2635 -7.09662e-006 5.19571e-006 -3 8.02898 -4.95144 0.697692 -63.8908 -3.75626 2.74491 -108.057 18.8959 0.0134693 -5.1684e-015 6.36111e-015 -3.18055e-015 -14.7809 5.53156 0.96623 4.61978e-006 1.88776e-006 3.00001 -8.02893 -4.95144 -0.697707 178.974 -0.614687 -0.271711 180 7.01553e-015 178.948 177.609 5.43796 179.781 -3.63578e-006 -3.53707e-006 0.036288 -18.1616 67.3662 19.0363 8.13354 25.2328 -3.48648 -176.835 0.24205 1.96941 4.54188e-006 -4.6773e-006 -1.09254 -2.35502 -8.64757 0.15699 5.39004e-007 -2.5754e-006 -0.153289 19.7228 69.2999 -20.6711 -8.13937 25.2325 3.48896 
52.0136 100.609 9.04074 -0.540924 -2.29625 1.514 0.27128 -2.13633 -0.1038 0.544926 -0.270452 -0.232818 0.547855 1.37457 -0.24201 -2.48991 25.0293 3.08442 -6.51935 -6.37582 1.15209 65.4945 -0.849406 -1.31002 107.986 9.3323 10.9009 -7.15625e-015 -1.59028e-015 -1.59028e-015 16.0673 7.7182 -1.28674 -7.09662e-006 5.19571e-006 -3 8.02898 -4.95144 0.697692 -63.8797 -3.74178 2.73602 -108.078 18.954 0.066238 -4.77083e-015 3.18055e-015 -1.59028e-015 -14.8005 5.53572 0.966278 4.61978e-006 1.88776e-006 3.00001 -8.02893 -4.95144 -0.697707 178.976 -0.598952 -0.272818 180 7.01553e-015 178.948 177.609 5.44774 179.781 -3.63578e-006 -3.53707e-006 0.036288 -18.1589 67.3627 19.0333 8.13354 25.2328 -3.48648 -176.832 0.252214 1.96397 4.54188e-006 -4.6773e-006 -1.09254 -2.35985 -8.65874 0.155933 5.39004e-007 -2.5754e-006 -0.153289 19.7244 69.3016 -20.6727 -8.13937 25.2325 3.48896 
52.0273 100.609 9.03935 -0.543326 -2.29283 1.49636 0.272788 -2.1359 -0.10241 0.547147 -0.269589 -0.230198 0.550046 1.37544 -0.239424 -2.48025 24.9958 3.07756 -6.50587 -6.31408 1.15516 65.5079 -0.866575 -1.3206 107.975 9.31753 10.8599 3.57812e-015 1.59028e-015 1.59028e-015 16.0856 7.85877 -1.31023 -7.09662e-006 5.19571e-006 -3 8.02898 -4.95144 0.697692 -63.8686 -3.72728 2.72711 -108.099 19.0114 0.119394 -1.27222e-014 -6.36111e-015 -3.18055e-015 -14.8204 5.54106 0.9665 4.61978e-006 1.88776e-006 3.00001 -8.02893 -4.95144 -0.697707 178.977 -0.583093 -0.273943 180 7.01553e-015 178.948 177.609 5.45751 179.782 -3.63578e-006 -3.53707e-006 0.036288 -18.1561 67.3592 19.0303 8.13354 25.2328 -3.48648 -176.828 0.262445 1.95855 4.54188e-006 -4.6773e-006 -1.09254 -2.36469 -8.66982 0.154885 5.39004e-007 -2.5754e-006 -0.153289 19.7259 69.3032 -20.6744 -8.13937 25.2325 3.48896 
52.0307 100.611 9.05366 -0.54578 -2.28925 1.47864 0.274293 -2.13551 -0.101122 0.549384 -0.268804 -0.22778 0.552255 1.37622 -0.23704 -2.46913 24.9639 3.07027 -6.49479 -6.2545 1.15776 65.5218 -0.883298 -1.33099 107.964 9.30201 10.8175 6.36111e-015 -1.59028e-015 -1.59028e-015 16.1049 8.00141 -1.33413 -7.09662e-006 5.19571e-006 -3 8.02898 -4.95144 0.697692 -63.8575 -3.71275 2.71819 -108.119 19.0679 0.173148 -8.74653e-015 0 -3.18055e-015 -14.8409 5.5483 0.966999 4.61978e-006 1.88776e-006 3.00001 -8.02893 -4.95144 -0.697707 178.978 -0.567037 -0.275095 180 7.01553e-015 178.948 177.609 5.4672 179.782 -3.63578e-006 -3.53707e-006 0.036288 -18.1534 67.3557 19.0273 8.13354 25.2328 -3.48648 -176.825 0.272787 1.95314 4.54188e-006 -4.6773e-006 -1.09254 -2.36954 -8.68076 0.153852 5.39004e-007 -2.5754e-006 -0.153289 19.7275 69.3048 -20.676 -8.13937 25.2325 3.48896 
52.0363 100.611 9.04966 -0.548306 -2.28544 1.46083 0.275795 -2.13517 -0.0999755 0.551642 -0.268126 -0.225637 0.554489 1.3769 -0.234932 -2.45598 24.934 3.0624 -6.48701 -6.19787 1.1597 65.5361 -0.899407 -1.3411 107.951 9.28545 10.7732 -1.19271e-015 -1.59028e-015 -0 16.1256 8.14689 -1.35858 -7.09662e-006 5.19571e-006 -3 8.02898 -4.95144 0.697692 -63.8464 -3.69818 2.70925 -108.139 19.1231 0.227709 8.74653e-015 0 3.18055e-015 -14.8622 5.55815 0.967879 4.61978e-006 1.88776e-006 3.00001 -8.02893 -4.95144 -0.697707 178.979 -0.550709 -0.276287 180 7.01553e-015 178.948 177.608 5.47683 179.782 -3.63578e-006 -3.53707e-006 0.036288 -18.1506 67.3522 19.0243 8.13354 25.2328 -3.48648 -176.822 0.283279 1.94774 4.54188e-006 -4.6773e-006 -1.09255 -2.37442 -8.69151 0.152841 5.39004e-007 -2.5754e-006 -0.153289 19.729 69.3064 -20.6776 -8.13937 25.2325 3.48896 
